<svg version="1.1" id="Layer_1" xmlns="http://www.w3.org/2000/svg" xmlns:xlink="http://www.w3.org/1999/xlink" x="0px" y="0px"
	 width="100%" viewBox="0 0 953 912" enable-background="new 0 0 953 912" xml:space="preserve">
<path fill="#FFFFFF" opacity="1.000000" stroke="none" 
	d="
M564.000000,913.000000 
	C376.000000,913.000000 188.500000,913.000000 1.000000,913.000000 
	C1.000000,609.000000 1.000000,305.000000 1.000000,1.000000 
	C318.666656,1.000000 636.333313,1.000000 954.000000,1.000000 
	C954.000000,305.000000 954.000000,609.000000 954.000000,913.000000 
	C824.166687,913.000000 694.333313,913.000000 564.000000,913.000000 
M428.239868,493.031097 
	C427.582947,492.293701 426.848419,491.611420 426.280121,490.811066 
	C385.106140,432.826843 343.916931,374.853333 302.865631,316.782349 
	C300.763123,313.808167 298.657806,312.880371 295.150085,312.915497 
	C276.987152,313.097229 258.821442,312.999939 240.656677,312.999939 
	C237.531647,312.999939 234.406601,312.999939 231.043472,312.999939 
	C230.929596,314.970154 230.771622,316.428223 230.771515,317.886322 
	C230.760300,464.037598 230.771744,610.188904 230.690811,756.340088 
	C230.689041,759.557251 231.759903,761.446594 234.309265,763.311279 
	C256.000427,779.176880 278.634735,793.436340 303.126312,804.633789 
	C372.184082,836.206726 444.396912,846.290344 519.432068,835.714905 
	C566.028625,829.147522 609.901794,814.090942 650.966309,791.008179 
	C685.422852,771.639832 717.423706,749.033630 744.303284,719.761658 
	C775.615723,685.662354 798.562988,646.072876 818.014587,604.481934 
	C839.412354,558.729736 846.540344,509.732635 846.519165,459.718536 
	C846.510681,439.665314 844.802307,419.453217 841.945374,399.589935 
	C832.426697,333.409576 806.098389,274.255859 765.043945,221.586090 
	C762.018311,217.704422 758.806580,213.967834 755.351196,209.761932 
	C755.017517,211.000137 754.804688,211.450699 754.785461,211.909378 
	C753.922424,232.518692 753.047119,253.127609 752.236938,273.739044 
	C751.531067,291.699341 750.821960,309.660248 750.279480,327.625854 
	C750.085815,334.039917 749.550842,340.338745 752.031799,346.765350 
	C772.588074,400.013458 778.027832,454.890442 767.959290,511.055878 
	C754.528320,585.977844 718.039185,647.718994 659.544006,696.242126 
	C616.422241,732.012451 566.718323,753.500732 511.524811,762.876648 
	C483.604584,767.619507 455.656708,769.914246 427.588287,765.678772 
	C383.883148,759.083801 342.699005,745.023071 304.577545,722.356079 
	C301.530396,720.544373 300.707886,718.472107 300.710632,715.140137 
	C300.786591,623.316528 300.770111,531.492859 300.784851,439.669189 
	C300.785065,438.302643 300.984497,436.936096 301.158295,434.704956 
	C302.848389,436.911011 303.985718,438.301270 305.022644,439.762756 
	C335.476440,482.684784 365.899780,525.628479 396.375763,568.534790 
	C408.423920,585.497070 420.585602,602.378845 433.347534,619.890503 
	C454.953461,619.890503 476.559387,619.890503 498.887634,619.890503 
	C498.887634,556.462341 498.887634,493.204590 498.887634,428.726898 
	C500.514557,431.135132 501.362091,432.353607 502.173340,433.595795 
	C542.001526,494.579041 581.846924,555.551086 621.584473,616.593323 
	C623.338013,619.287048 625.064941,620.353088 628.327576,620.324768 
	C648.157776,620.152771 667.990112,620.243469 687.821777,620.229736 
	C689.274841,620.228760 690.727783,620.096252 692.580078,620.005310 
	C692.580078,617.751770 692.580017,615.781799 692.580017,613.811829 
	C692.580017,466.157715 692.585938,318.503601 692.560913,170.849487 
	C692.559753,164.223541 694.466309,156.322968 691.546021,151.310471 
	C688.264771,145.678421 680.674011,142.395126 674.671692,138.535507 
	C619.766968,103.230949 560.089539,81.808586 494.772797,76.660896 
	C459.730957,73.899200 424.896362,75.322945 390.477478,82.320259 
	C313.849030,97.898689 246.993439,131.807373 192.888123,189.186646 
	C171.027847,212.369690 150.174301,236.499847 133.765686,263.818878 
	C102.531044,315.821991 85.562881,372.455505 81.696312,433.070526 
	C78.851173,477.672821 83.388321,521.446167 96.026978,564.246216 
	C108.128319,605.226685 127.951080,642.555298 152.048477,677.670959 
	C158.772659,687.469788 165.996460,696.925781 173.877975,707.757935 
	C174.000076,705.191467 174.083466,704.255310 174.083603,703.319092 
	C174.089981,658.322937 174.102509,613.326721 174.043579,568.330627 
	C174.041046,566.394287 173.626556,564.368286 172.975739,562.536194 
	C154.050568,509.259857 150.018738,454.614136 158.045120,398.905273 
	C163.272369,362.624512 175.395493,328.741333 194.434082,297.401550 
	C219.226532,256.590210 253.213913,225.067719 293.206909,199.518127 
	C358.201965,157.995926 428.898285,141.519485 505.409271,151.367371 
	C545.548096,156.533722 583.162292,169.678513 618.281372,189.907288 
	C621.519775,191.772629 622.877075,193.650482 622.871521,197.603745 
	C622.731079,297.428406 622.761047,397.253265 622.761047,497.078125 
	C622.761047,498.503418 622.761047,499.928680 622.761047,502.857056 
	C620.937988,500.215118 619.924927,498.814728 618.980896,497.369171 
	C579.607605,437.080597 540.226013,376.797302 500.924072,316.462219 
	C499.307434,313.980408 497.684631,312.892029 494.593292,312.915863 
	C473.929596,313.075256 453.264099,312.993317 432.599182,313.011658 
	C431.340851,313.012787 430.082703,313.201691 428.761078,313.308350 
	C428.761078,365.860382 428.768341,418.021271 428.753265,470.182129 
	C428.751007,478.010986 428.644165,485.839813 428.239868,493.031097 
z"/>
<path fill="#010101" opacity="1.000000" stroke="none" 
	d="
M428.585724,493.668671 
	C428.644165,485.839813 428.751007,478.010986 428.753265,470.182129 
	C428.768341,418.021271 428.761078,365.860382 428.761078,313.308350 
	C430.082703,313.201691 431.340851,313.012787 432.599182,313.011658 
	C453.264099,312.993317 473.929596,313.075256 494.593292,312.915863 
	C497.684631,312.892029 499.307434,313.980408 500.924072,316.462219 
	C540.226013,376.797302 579.607605,437.080597 618.980896,497.369171 
	C619.924927,498.814728 620.937988,500.215118 622.761047,502.857056 
	C622.761047,499.928680 622.761047,498.503418 622.761047,497.078125 
	C622.761047,397.253265 622.731079,297.428406 622.871521,197.603745 
	C622.877075,193.650482 621.519775,191.772629 618.281372,189.907288 
	C583.162292,169.678513 545.548096,156.533722 505.409271,151.367371 
	C428.898285,141.519485 358.201965,157.995926 293.206909,199.518127 
	C253.213913,225.067719 219.226532,256.590210 194.434082,297.401550 
	C175.395493,328.741333 163.272369,362.624512 158.045120,398.905273 
	C150.018738,454.614136 154.050568,509.259857 172.975739,562.536194 
	C173.626556,564.368286 174.041046,566.394287 174.043579,568.330627 
	C174.102509,613.326721 174.089981,658.322937 174.083603,703.319092 
	C174.083466,704.255310 174.000076,705.191467 173.877975,707.757935 
	C165.996460,696.925781 158.772659,687.469788 152.048477,677.670959 
	C127.951080,642.555298 108.128319,605.226685 96.026978,564.246216 
	C83.388321,521.446167 78.851173,477.672821 81.696312,433.070526 
	C85.562881,372.455505 102.531044,315.821991 133.765686,263.818878 
	C150.174301,236.499847 171.027847,212.369690 192.888123,189.186646 
	C246.993439,131.807373 313.849030,97.898689 390.477478,82.320259 
	C424.896362,75.322945 459.730957,73.899200 494.772797,76.660896 
	C560.089539,81.808586 619.766968,103.230949 674.671692,138.535507 
	C680.674011,142.395126 688.264771,145.678421 691.546021,151.310471 
	C694.466309,156.322968 692.559753,164.223541 692.560913,170.849487 
	C692.585938,318.503601 692.580017,466.157715 692.580017,613.811829 
	C692.580017,615.781799 692.580078,617.751770 692.580078,620.005310 
	C690.727783,620.096252 689.274841,620.228760 687.821777,620.229736 
	C667.990112,620.243469 648.157776,620.152771 628.327576,620.324768 
	C625.064941,620.353088 623.338013,619.287048 621.584473,616.593323 
	C581.846924,555.551086 542.001526,494.579041 502.173340,433.595795 
	C501.362091,432.353607 500.514557,431.135132 498.887634,428.726898 
	C498.887634,493.204590 498.887634,556.462341 498.887634,619.890503 
	C476.559387,619.890503 454.953461,619.890503 433.112579,619.114319 
	C431.898468,589.578796 430.924072,560.819275 429.938049,532.060181 
	C429.499268,519.262634 429.037201,506.465820 428.585724,493.668671 
z"/>
<path fill="#32C4F3" opacity="1.000000" stroke="none" 
	d="
M428.412781,493.349884 
	C429.037201,506.465820 429.499268,519.262634 429.938049,532.060181 
	C430.924072,560.819275 431.898468,589.578796 432.786621,618.817688 
	C420.585602,602.378845 408.423920,585.497070 396.375763,568.534790 
	C365.899780,525.628479 335.476440,482.684784 305.022644,439.762756 
	C303.985718,438.301270 302.848389,436.911011 301.158295,434.704956 
	C300.984497,436.936096 300.785065,438.302643 300.784851,439.669189 
	C300.770111,531.492859 300.786591,623.316528 300.710632,715.140137 
	C300.707886,718.472107 301.530396,720.544373 304.577545,722.356079 
	C342.699005,745.023071 383.883148,759.083801 427.588287,765.678772 
	C455.656708,769.914246 483.604584,767.619507 511.524811,762.876648 
	C566.718323,753.500732 616.422241,732.012451 659.544006,696.242126 
	C718.039185,647.718994 754.528320,585.977844 767.959290,511.055878 
	C778.027832,454.890442 772.588074,400.013458 752.031799,346.765350 
	C749.550842,340.338745 750.085815,334.039917 750.279480,327.625854 
	C750.821960,309.660248 751.531067,291.699341 752.236938,273.739044 
	C753.047119,253.127609 753.922424,232.518692 754.785461,211.909378 
	C754.804688,211.450699 755.017517,211.000137 755.351196,209.761932 
	C758.806580,213.967834 762.018311,217.704422 765.043945,221.586090 
	C806.098389,274.255859 832.426697,333.409576 841.945374,399.589935 
	C844.802307,419.453217 846.510681,439.665314 846.519165,459.718536 
	C846.540344,509.732635 839.412354,558.729736 818.014587,604.481934 
	C798.562988,646.072876 775.615723,685.662354 744.303284,719.761658 
	C717.423706,749.033630 685.422852,771.639832 650.966309,791.008179 
	C609.901794,814.090942 566.028625,829.147522 519.432068,835.714905 
	C444.396912,846.290344 372.184082,836.206726 303.126312,804.633789 
	C278.634735,793.436340 256.000427,779.176880 234.309265,763.311279 
	C231.759903,761.446594 230.689041,759.557251 230.690811,756.340088 
	C230.771744,610.188904 230.760300,464.037598 230.771515,317.886322 
	C230.771622,316.428223 230.929596,314.970154 231.043472,312.999939 
	C234.406601,312.999939 237.531647,312.999939 240.656677,312.999939 
	C258.821442,312.999939 276.987152,313.097229 295.150085,312.915497 
	C298.657806,312.880371 300.763123,313.808167 302.865631,316.782349 
	C343.916931,374.853333 385.106140,432.826843 426.280121,490.811066 
	C426.848419,491.611420 427.582947,492.293701 428.412781,493.349884 
z"/>
</svg>